 <svg version="1.0" xmlns="http://www.w3.org/2000/svg" width="700.000000pt" height="673.000000pt" viewBox="0 0 700.000000 673.000000" preserveAspectRatio="xMidYMid meet">
<metadata>
Created by potrace 1.12, written by Peter Selinger 2001-2015
</metadata>
<g transform="translate(0.000000,673.000000) scale(0.100000,-0.100000)" fill="#000000" stroke="none">
<path d="M3305 6718 c-35 -9 -232 -202 -1648 -1617 -884 -883 -1617 -1620
-1628 -1638 -31 -50 -36 -123 -11 -175 16 -31 469 -490 1634 -1655 1487 -1485
1617 -1612 1658 -1623 104 -28 204 27 239 129 16 48 13 90 -8 136 -13 28 -455
476 -1440 1460 -782 781 -1421 1423 -1421 1427 0 5 1388 8 3085 8 3043 0 3086
0 3124 20 145 73 144 278 -1 349 l-44 21 -3085 0 -3084 0 1427 1428 c1013
1013 1432 1438 1443 1464 44 109 -11 229 -124 267 -39 13 -61 13 -116 -1z"></path>
</g>
</svg>